<?xml version="1.0" standalone="no"?>
<!DOCTYPE svg PUBLIC "-//W3C//DTD SVG 1.1//EN" "http://www.w3.org/Graphics/SVG/1.1/DTD/svg11.dtd"><svg t="1751560033398"
    class="icon" viewBox="0 0 1024 1024" version="1.1" xmlns="http://www.w3.org/2000/svg" p-id="4647"
    xmlns:xlink="http://www.w3.org/1999/xlink" width="128" height="128">
    <path
        d="M886.464 422.624L782.912 98.88a10.56 10.56 0 0 0-10.176-7.424h-88.448a10.656 10.656 0 0 0-10.176 7.424l-104.32 323.776a10.528 10.528 0 0 0-0.608 3.328c0 5.824 4.8 10.624 10.624 10.624h64.48c4.8 0 8.896-3.2 10.272-7.776l20-70.4h101.728l19.776 70.304c1.248 4.544 5.472 7.744 10.272 7.744h69.952a9.792 9.792 0 0 0 3.2-0.448 11.008 11.008 0 0 0 6.272-5.248 11.072 11.072 0 0 0 0.704-8.128zM684.96 298.88l37.504-133.6h7.2l36.672 133.6h-81.376z m164 563.328h-148.096v-0.448l151.52-215.904a10.688 10.688 0 0 0 1.952-6.176v-41.6a10.688 10.688 0 0 0-10.624-10.624H610.56a10.688 10.688 0 0 0-10.624 10.624v49.152c0 5.824 4.8 10.624 10.624 10.624h140.128v0.48l-152.128 215.872a10.688 10.688 0 0 0-1.92 6.176v41.6c0 5.824 4.8 10.624 10.624 10.624h241.6c5.824 0 10.624-4.8 10.624-10.624v-49.152a10.496 10.496 0 0 0-10.528-10.624z m-446.624-133.024H315.488V123.424a9.184 9.184 0 0 0-9.152-9.152h-64a9.184 9.184 0 0 0-9.152 9.152v605.728H146.336a9.184 9.184 0 0 0-7.2 14.848l128 162.176a9.12 9.12 0 0 0 14.4 0l128-162.176a9.184 9.184 0 0 0-7.2-14.848z"
        fill="#ff0000" p-id="4648"></path>
</svg>