<svg t="1750242011885" class="icon" viewBox="0 0 1024 1024" version="1.1" xmlns="http://www.w3.org/2000/svg" p-id="19116" width="128" height="128"><path d="M512 768a256 256 0 1 0 0-512 256 256 0 0 0 0 512zM512 204.8a51.2 51.2 0 0 0 51.2-51.2V51.2a51.2 51.2 0 0 0-102.4 0v102.4a51.2 51.2 0 0 0 51.2 51.2zM512 819.2a51.2 51.2 0 0 0-51.2 51.2v102.4a51.2 51.2 0 1 0 102.4 0v-102.4a51.2 51.2 0 0 0-51.2-51.2zM222.3616 294.7584a51.2 51.2 0 0 0 72.3968-72.3968L222.3616 149.9648a51.2 51.2 0 0 0-72.3968 72.3968l72.3968 72.3968zM801.6384 729.2416a51.2 51.2 0 0 0-72.3968 72.3968l72.3968 72.3968a51.2 51.2 0 0 0 72.3968-72.3968l-72.3968-72.3968zM204.8 512a51.2 51.2 0 0 0-51.2-51.2H51.2a51.2 51.2 0 0 0 0 102.4h102.4a51.2 51.2 0 0 0 51.2-51.2zM972.8 460.8h-102.4a51.2 51.2 0 1 0 0 102.4h102.4a51.2 51.2 0 0 0 0-102.4zM222.3616 729.2416l-72.3968 72.3968a51.2 51.2 0 1 0 72.3968 72.3968l72.3968-72.3968a51.2 51.2 0 0 0-72.3968-72.3968zM765.44 309.76a51.2 51.2 0 0 0 36.1984-15.0016l72.3968-72.3968a51.2 51.2 0 1 0-72.3968-72.3968l-72.3968 72.3968a51.2 51.2 0 0 0 36.1984 87.3984z" fill="#1F2A37" p-id="19117"></path></svg>